<?xml version="1.0" encoding="utf-8"?>
<!-- Generator: Adobe Illustrator 19.0.0, SVG Export Plug-In . SVG Version: 6.00 Build 0)  -->
<svg version="1.1" id="图层_1" xmlns="http://www.w3.org/2000/svg" xmlns:xlink="http://www.w3.org/1999/xlink" x="0px" y="0px"
	 viewBox="0 0 100 100" style="enable-background:new 0 0 100 100;" xml:space="preserve">
<style type="text/css">
	.st0{fill:#FCF7F7;}
	.st1{fill:#FFFFFF;}
	.st2{clip-path:url(#SVGID_2_);}
	.st3{fill:#EAD3D3;}
	.st4{fill:#414249;}
	.st5{fill:#FC6554;}
	.st6{fill:#D11313;}
</style>
<g id="XMLID_153_">
	<circle class="st0" cx="50" cy="50" r="50"/>
</g>
<g id="XMLID_9_">
	<path class="st1" d="M72,80.4H26c-2.3,0-4.2-1.9-4.2-4.2V26.4c0-2.3,1.9-4.2,4.2-4.2H72c2.3,0,4.2,1.9,4.2,4.2v49.8
		C76.3,78.5,74.4,80.4,72,80.4z"/>
</g>
<g id="XMLID_8_">
	<defs>
		<path id="SVGID_1_" d="M72,80.4H26c-2.3,0-4.2-1.9-4.2-4.2V26.4c0-2.3,1.9-4.2,4.2-4.2H72c2.3,0,4.2,1.9,4.2,4.2v49.8
			C76.3,78.5,74.4,80.4,72,80.4z"/>
	</defs>
	<clipPath id="SVGID_2_">
		<use xlink:href="#SVGID_1_"  style="overflow:visible;"/>
	</clipPath>
	<g id="XMLID_23_" class="st2">
		<g id="XMLID_1931_">
			<rect x="-11.3" y="8.2" class="st3" width="109.4" height="0.2"/>
		</g>
		<g id="XMLID_24_">
			<path class="st3" d="M98.3,8.8H98v2.2h-2.9V8.8h-0.3v2.2H92V8.8h-0.3v2.2h-2.9V8.8h-0.3v2.2h-2.9V8.8h-0.3v2.2h-2.9V8.8h-0.3v2.2
				h-2.9V8.8h-0.3v2.2h-2.9V8.8h-0.3v2.2h-2.9V8.8H73v2.2h-2.9V8.8h-0.3v2.2H67V8.8h-0.3v2.2h-2.9V8.8h-0.3v2.2h-2.9V8.8h-0.3v2.2
				h-2.9V8.8h-0.3v2.2h-2.9V8.8h-0.3v2.2h-2.9V8.8h-0.3v2.2h-2.9V8.8H48v2.2h-2.9V8.8h-0.3v2.2H42V8.8h-0.3v2.2h-2.9V8.8h-0.3v2.2
				h-2.9V8.8h-0.3v2.2h-2.9V8.8h-0.3v2.2h-2.9V8.8h-0.3v2.2h-2.9V8.8h-0.3v2.2h-2.9V8.8H23v2.2h-2.9V8.8h-0.3v2.2H17V8.8h-0.3v2.2
				h-2.9V8.8h-0.3v2.2h-2.9V8.8h-0.3v2.2H7.6V8.8H7.4v2.2H4.5V8.8H4.2v2.2H1.4V8.8H1.1v2.2h-2.9V8.8H-2v2.2h-2.9V8.8h-0.3v2.2H-8
				V8.8h-0.3v2.2h-2.9V8.8h-0.3v79.3h0.1v0.1H98.1v-0.1h0.1V8.8z M98,11.3v2.6h-2.9v-2.6H98z M54.3,51h-2.9v-2.6h2.9V51z M54.5,48.3
				h2.9V51h-2.9V48.3z M51.1,51h-2.9v-2.6h2.9V51z M48,51h-2.9v-2.6H48V51z M44.9,51H42v-2.6h2.9V51z M41.8,51h-2.9v-2.6h2.9V51z
				 M38.6,51h-2.9v-2.6h2.9V51z M35.5,51h-2.9v-2.6h2.9V51z M32.4,51h-2.9v-2.6h2.9V51z M29.3,51h-2.9v-2.6h2.9V51z M29.3,51.2v2.6
				h-2.9v-2.6H29.3z M29.5,51.2h2.9v2.6h-2.9V51.2z M32.6,51.2h2.9v2.6h-2.9V51.2z M35.8,51.2h2.9v2.6h-2.9V51.2z M38.9,51.2h2.9
				v2.6h-2.9V51.2z M42,51.2h2.9v2.6H42V51.2z M45.1,51.2H48v2.6h-2.9V51.2z M48.3,51.2h2.9v2.6h-2.9V51.2z M51.4,51.2h2.9v2.6h-2.9
				V51.2z M54.5,51.2h2.9v2.6h-2.9V51.2z M57.6,51.2h2.9v2.6h-2.9V51.2z M57.6,51v-2.6h2.9V51H57.6z M57.6,48.1v-2.6h2.9v2.6H57.6z
				 M57.4,48.1h-2.9v-2.6h2.9V48.1z M54.3,48.1h-2.9v-2.6h2.9V48.1z M51.1,48.1h-2.9v-2.6h2.9V48.1z M48,48.1h-2.9v-2.6H48V48.1z
				 M44.9,48.1H42v-2.6h2.9V48.1z M41.8,48.1h-2.9v-2.6h2.9V48.1z M38.6,48.1h-2.9v-2.6h2.9V48.1z M35.5,48.1h-2.9v-2.6h2.9V48.1z
				 M32.4,48.1h-2.9v-2.6h2.9V48.1z M29.3,48.1h-2.9v-2.6h2.9V48.1z M26.1,48.1h-2.9v-2.6h2.9V48.1z M26.1,48.3V51h-2.9v-2.6H26.1z
				 M26.1,51.2v2.6h-2.9v-2.6H26.1z M26.1,54v2.6h-2.9V54H26.1z M26.4,54h2.9v2.6h-2.9V54z M29.5,54h2.9v2.6h-2.9V54z M32.6,54h2.9
				v2.6h-2.9V54z M35.8,54h2.9v2.6h-2.9V54z M38.9,54h2.9v2.6h-2.9V54z M42,54h2.9v2.6H42V54z M45.1,54H48v2.6h-2.9V54z M48.3,54
				h2.9v2.6h-2.9V54z M51.4,54h2.9v2.6h-2.9V54z M54.5,54h2.9v2.6h-2.9V54z M57.6,54h2.9v2.6h-2.9V54z M60.8,54h2.9v2.6h-2.9V54z
				 M60.8,53.8v-2.6h2.9v2.6H60.8z M60.8,51v-2.6h2.9V51H60.8z M60.8,48.1v-2.6h2.9v2.6H60.8z M60.8,45.3v-2.6h2.9v2.6H60.8z
				 M60.5,45.3h-2.9v-2.6h2.9V45.3z M57.4,45.3h-2.9v-2.6h2.9V45.3z M54.3,45.3h-2.9v-2.6h2.9V45.3z M51.1,45.3h-2.9v-2.6h2.9V45.3z
				 M48,45.3h-2.9v-2.6H48V45.3z M44.9,45.3H42v-2.6h2.9V45.3z M41.8,45.3h-2.9v-2.6h2.9V45.3z M38.6,45.3h-2.9v-2.6h2.9V45.3z
				 M35.5,45.3h-2.9v-2.6h2.9V45.3z M32.4,45.3h-2.9v-2.6h2.9V45.3z M29.3,45.3h-2.9v-2.6h2.9V45.3z M26.1,45.3h-2.9v-2.6h2.9V45.3z
				 M23,45.3h-2.9v-2.6H23V45.3z M23,45.5v2.6h-2.9v-2.6H23z M23,48.3V51h-2.9v-2.6H23z M23,51.2v2.6h-2.9v-2.6H23z M23,54v2.6h-2.9
				V54H23z M23,56.9v2.6h-2.9v-2.6H23z M23.3,56.9h2.9v2.6h-2.9V56.9z M26.4,56.9h2.9v2.6h-2.9V56.9z M29.5,56.9h2.9v2.6h-2.9V56.9z
				 M32.6,56.9h2.9v2.6h-2.9V56.9z M35.8,56.9h2.9v2.6h-2.9V56.9z M38.9,56.9h2.9v2.6h-2.9V56.9z M42,56.9h2.9v2.6H42V56.9z
				 M45.1,56.9H48v2.6h-2.9V56.9z M48.3,56.9h2.9v2.6h-2.9V56.9z M51.4,56.9h2.9v2.6h-2.9V56.9z M54.5,56.9h2.9v2.6h-2.9V56.9z
				 M57.6,56.9h2.9v2.6h-2.9V56.9z M60.8,56.9h2.9v2.6h-2.9V56.9z M63.9,56.9h2.9v2.6h-2.9V56.9z M63.9,56.7V54h2.9v2.6H63.9z
				 M63.9,53.8v-2.6h2.9v2.6H63.9z M63.9,51v-2.6h2.9V51H63.9z M63.9,48.1v-2.6h2.9v2.6H63.9z M63.9,45.3v-2.6h2.9v2.6H63.9z
				 M63.9,42.4v-2.6h2.9v2.6H63.9z M63.6,42.4h-2.9v-2.6h2.9V42.4z M60.5,42.4h-2.9v-2.6h2.9V42.4z M57.4,42.4h-2.9v-2.6h2.9V42.4z
				 M54.3,42.4h-2.9v-2.6h2.9V42.4z M51.1,42.4h-2.9v-2.6h2.9V42.4z M48,42.4h-2.9v-2.6H48V42.4z M44.9,42.4H42v-2.6h2.9V42.4z
				 M41.8,42.4h-2.9v-2.6h2.9V42.4z M38.6,42.4h-2.9v-2.6h2.9V42.4z M35.5,42.4h-2.9v-2.6h2.9V42.4z M32.4,42.4h-2.9v-2.6h2.9V42.4z
				 M29.3,42.4h-2.9v-2.6h2.9V42.4z M26.1,42.4h-2.9v-2.6h2.9V42.4z M23,42.4h-2.9v-2.6H23V42.4z M19.9,42.4H17v-2.6h2.9V42.4z
				 M19.9,42.6v2.6H17v-2.6H19.9z M19.9,45.5v2.6H17v-2.6H19.9z M19.9,48.3V51H17v-2.6H19.9z M19.9,51.2v2.6H17v-2.6H19.9z M19.9,54
				v2.6H17V54H19.9z M19.9,56.9v2.6H17v-2.6H19.9z M19.9,59.7v2.6H17v-2.6H19.9z M20.1,59.7H23v2.6h-2.9V59.7z M23.3,59.7h2.9v2.6
				h-2.9V59.7z M26.4,59.7h2.9v2.6h-2.9V59.7z M29.5,59.7h2.9v2.6h-2.9V59.7z M32.6,59.7h2.9v2.6h-2.9V59.7z M35.8,59.7h2.9v2.6
				h-2.9V59.7z M38.9,59.7h2.9v2.6h-2.9V59.7z M42,59.7h2.9v2.6H42V59.7z M45.1,59.7H48v2.6h-2.9V59.7z M48.3,59.7h2.9v2.6h-2.9
				V59.7z M51.4,59.7h2.9v2.6h-2.9V59.7z M54.5,59.7h2.9v2.6h-2.9V59.7z M57.6,59.7h2.9v2.6h-2.9V59.7z M60.8,59.7h2.9v2.6h-2.9
				V59.7z M63.9,59.7h2.9v2.6h-2.9V59.7z M67,59.7h2.9v2.6H67V59.7z M67,59.5v-2.6h2.9v2.6H67z M67,56.7V54h2.9v2.6H67z M67,53.8
				v-2.6h2.9v2.6H67z M67,51v-2.6h2.9V51H67z M67,48.1v-2.6h2.9v2.6H67z M67,45.3v-2.6h2.9v2.6H67z M67,42.4v-2.6h2.9v2.6H67z
				 M67,39.6v-2.6h2.9v2.6H67z M66.8,39.6h-2.9v-2.6h2.9V39.6z M63.6,39.6h-2.9v-2.6h2.9V39.6z M60.5,39.6h-2.9v-2.6h2.9V39.6z
				 M57.4,39.6h-2.9v-2.6h2.9V39.6z M54.3,39.6h-2.9v-2.6h2.9V39.6z M51.1,39.6h-2.9v-2.6h2.9V39.6z M48,39.6h-2.9v-2.6H48V39.6z
				 M44.9,39.6H42v-2.6h2.9V39.6z M41.8,39.6h-2.9v-2.6h2.9V39.6z M38.6,39.6h-2.9v-2.6h2.9V39.6z M35.5,39.6h-2.9v-2.6h2.9V39.6z
				 M32.4,39.6h-2.9v-2.6h2.9V39.6z M29.3,39.6h-2.9v-2.6h2.9V39.6z M26.1,39.6h-2.9v-2.6h2.9V39.6z M23,39.6h-2.9v-2.6H23V39.6z
				 M19.9,39.6H17v-2.6h2.9V39.6z M16.8,39.6h-2.9v-2.6h2.9V39.6z M16.8,39.8v2.6h-2.9v-2.6H16.8z M16.8,42.6v2.6h-2.9v-2.6H16.8z
				 M16.8,45.5v2.6h-2.9v-2.6H16.8z M16.8,48.3V51h-2.9v-2.6H16.8z M16.8,51.2v2.6h-2.9v-2.6H16.8z M16.8,54v2.6h-2.9V54H16.8z
				 M16.8,56.9v2.6h-2.9v-2.6H16.8z M16.8,59.7v2.6h-2.9v-2.6H16.8z M16.8,62.6v2.6h-2.9v-2.6H16.8z M17,62.6h2.9v2.6H17V62.6z
				 M20.1,62.6H23v2.6h-2.9V62.6z M23.3,62.6h2.9v2.6h-2.9V62.6z M26.4,62.6h2.9v2.6h-2.9V62.6z M29.5,62.6h2.9v2.6h-2.9V62.6z
				 M32.6,62.6h2.9v2.6h-2.9V62.6z M35.8,62.6h2.9v2.6h-2.9V62.6z M38.9,62.6h2.9v2.6h-2.9V62.6z M42,62.6h2.9v2.6H42V62.6z
				 M45.1,62.6H48v2.6h-2.9V62.6z M48.3,62.6h2.9v2.6h-2.9V62.6z M51.4,62.6h2.9v2.6h-2.9V62.6z M54.5,62.6h2.9v2.6h-2.9V62.6z
				 M57.6,62.6h2.9v2.6h-2.9V62.6z M60.8,62.6h2.9v2.6h-2.9V62.6z M63.9,62.6h2.9v2.6h-2.9V62.6z M67,62.6h2.9v2.6H67V62.6z
				 M70.1,62.6H73v2.6h-2.9V62.6z M70.1,62.4v-2.6H73v2.6H70.1z M70.1,59.5v-2.6H73v2.6H70.1z M70.1,56.7V54H73v2.6H70.1z
				 M70.1,53.8v-2.6H73v2.6H70.1z M70.1,51v-2.6H73V51H70.1z M70.1,48.1v-2.6H73v2.6H70.1z M70.1,45.3v-2.6H73v2.6H70.1z M70.1,42.4
				v-2.6H73v2.6H70.1z M70.1,39.6v-2.6H73v2.6H70.1z M70.1,36.7v-2.6H73v2.6H70.1z M69.9,36.7H67v-2.6h2.9V36.7z M66.8,36.7h-2.9
				v-2.6h2.9V36.7z M63.6,36.7h-2.9v-2.6h2.9V36.7z M60.5,36.7h-2.9v-2.6h2.9V36.7z M57.4,36.7h-2.9v-2.6h2.9V36.7z M54.3,36.7h-2.9
				v-2.6h2.9V36.7z M51.1,36.7h-2.9v-2.6h2.9V36.7z M48,36.7h-2.9v-2.6H48V36.7z M44.9,36.7H42v-2.6h2.9V36.7z M41.8,36.7h-2.9v-2.6
				h2.9V36.7z M38.6,36.7h-2.9v-2.6h2.9V36.7z M35.5,36.7h-2.9v-2.6h2.9V36.7z M32.4,36.7h-2.9v-2.6h2.9V36.7z M29.3,36.7h-2.9v-2.6
				h2.9V36.7z M26.1,36.7h-2.9v-2.6h2.9V36.7z M23,36.7h-2.9v-2.6H23V36.7z M19.9,36.7H17v-2.6h2.9V36.7z M16.8,36.7h-2.9v-2.6h2.9
				V36.7z M13.6,36.7h-2.9v-2.6h2.9V36.7z M13.6,36.9v2.6h-2.9v-2.6H13.6z M13.6,39.8v2.6h-2.9v-2.6H13.6z M13.6,42.6v2.6h-2.9v-2.6
				H13.6z M13.6,45.5v2.6h-2.9v-2.6H13.6z M13.6,48.3V51h-2.9v-2.6H13.6z M13.6,51.2v2.6h-2.9v-2.6H13.6z M13.6,54v2.6h-2.9V54H13.6
				z M13.6,56.9v2.6h-2.9v-2.6H13.6z M13.6,59.7v2.6h-2.9v-2.6H13.6z M13.6,62.6v2.6h-2.9v-2.6H13.6z M13.6,65.4v2.6h-2.9v-2.6H13.6
				z M13.9,65.4h2.9v2.6h-2.9V65.4z M17,65.4h2.9v2.6H17V65.4z M20.1,65.4H23v2.6h-2.9V65.4z M23.3,65.4h2.9v2.6h-2.9V65.4z
				 M26.4,65.4h2.9v2.6h-2.9V65.4z M29.5,65.4h2.9v2.6h-2.9V65.4z M32.6,65.4h2.9v2.6h-2.9V65.4z M35.8,65.4h2.9v2.6h-2.9V65.4z
				 M38.9,65.4h2.9v2.6h-2.9V65.4z M42,65.4h2.9v2.6H42V65.4z M45.1,65.4H48v2.6h-2.9V65.4z M48.3,65.4h2.9v2.6h-2.9V65.4z
				 M51.4,65.4h2.9v2.6h-2.9V65.4z M54.5,65.4h2.9v2.6h-2.9V65.4z M57.6,65.4h2.9v2.6h-2.9V65.4z M60.8,65.4h2.9v2.6h-2.9V65.4z
				 M63.9,65.4h2.9v2.6h-2.9V65.4z M67,65.4h2.9v2.6H67V65.4z M70.1,65.4H73v2.6h-2.9V65.4z M73.3,65.4h2.9v2.6h-2.9V65.4z
				 M73.3,65.2v-2.6h2.9v2.6H73.3z M73.3,62.4v-2.6h2.9v2.6H73.3z M73.3,59.5v-2.6h2.9v2.6H73.3z M73.3,56.7V54h2.9v2.6H73.3z
				 M73.3,53.8v-2.6h2.9v2.6H73.3z M73.3,51v-2.6h2.9V51H73.3z M73.3,48.1v-2.6h2.9v2.6H73.3z M73.3,45.3v-2.6h2.9v2.6H73.3z
				 M73.3,42.4v-2.6h2.9v2.6H73.3z M73.3,39.6v-2.6h2.9v2.6H73.3z M73.3,36.7v-2.6h2.9v2.6H73.3z M73.3,33.9v-2.6h2.9v2.6H73.3z
				 M73,33.9h-2.9v-2.6H73V33.9z M69.9,33.9H67v-2.6h2.9V33.9z M66.8,33.9h-2.9v-2.6h2.9V33.9z M63.6,33.9h-2.9v-2.6h2.9V33.9z
				 M60.5,33.9h-2.9v-2.6h2.9V33.9z M57.4,33.9h-2.9v-2.6h2.9V33.9z M54.3,33.9h-2.9v-2.6h2.9V33.9z M51.1,33.9h-2.9v-2.6h2.9V33.9z
				 M48,33.9h-2.9v-2.6H48V33.9z M44.9,33.9H42v-2.6h2.9V33.9z M41.8,33.9h-2.9v-2.6h2.9V33.9z M38.6,33.9h-2.9v-2.6h2.9V33.9z
				 M35.5,33.9h-2.9v-2.6h2.9V33.9z M32.4,33.9h-2.9v-2.6h2.9V33.9z M29.3,33.9h-2.9v-2.6h2.9V33.9z M26.1,33.9h-2.9v-2.6h2.9V33.9z
				 M23,33.9h-2.9v-2.6H23V33.9z M19.9,33.9H17v-2.6h2.9V33.9z M16.8,33.9h-2.9v-2.6h2.9V33.9z M13.6,33.9h-2.9v-2.6h2.9V33.9z
				 M10.5,33.9H7.6v-2.6h2.9V33.9z M10.5,34.1v2.6H7.6v-2.6H10.5z M10.5,36.9v2.6H7.6v-2.6H10.5z M10.5,39.8v2.6H7.6v-2.6H10.5z
				 M10.5,42.6v2.6H7.6v-2.6H10.5z M10.5,45.5v2.6H7.6v-2.6H10.5z M10.5,48.3V51H7.6v-2.6H10.5z M10.5,51.2v2.6H7.6v-2.6H10.5z
				 M10.5,54v2.6H7.6V54H10.5z M10.5,56.9v2.6H7.6v-2.6H10.5z M10.5,59.7v2.6H7.6v-2.6H10.5z M10.5,62.6v2.6H7.6v-2.6H10.5z
				 M10.5,65.4v2.6H7.6v-2.6H10.5z M10.5,68.3v2.6H7.6v-2.6H10.5z M10.7,68.3h2.9v2.6h-2.9V68.3z M13.9,68.3h2.9v2.6h-2.9V68.3z
				 M17,68.3h2.9v2.6H17V68.3z M20.1,68.3H23v2.6h-2.9V68.3z M23.3,68.3h2.9v2.6h-2.9V68.3z M26.4,68.3h2.9v2.6h-2.9V68.3z
				 M29.5,68.3h2.9v2.6h-2.9V68.3z M32.6,68.3h2.9v2.6h-2.9V68.3z M35.8,68.3h2.9v2.6h-2.9V68.3z M38.9,68.3h2.9v2.6h-2.9V68.3z
				 M42,68.3h2.9v2.6H42V68.3z M45.1,68.3H48v2.6h-2.9V68.3z M48.3,68.3h2.9v2.6h-2.9V68.3z M51.4,68.3h2.9v2.6h-2.9V68.3z
				 M54.5,68.3h2.9v2.6h-2.9V68.3z M57.6,68.3h2.9v2.6h-2.9V68.3z M60.8,68.3h2.9v2.6h-2.9V68.3z M63.9,68.3h2.9v2.6h-2.9V68.3z
				 M67,68.3h2.9v2.6H67V68.3z M70.1,68.3H73v2.6h-2.9V68.3z M73.3,68.3h2.9v2.6h-2.9V68.3z M76.4,68.3h2.9v2.6h-2.9V68.3z
				 M76.4,68.1v-2.6h2.9v2.6H76.4z M76.4,65.2v-2.6h2.9v2.6H76.4z M76.4,62.4v-2.6h2.9v2.6H76.4z M76.4,59.5v-2.6h2.9v2.6H76.4z
				 M76.4,56.7V54h2.9v2.6H76.4z M76.4,53.8v-2.6h2.9v2.6H76.4z M76.4,51v-2.6h2.9V51H76.4z M76.4,48.1v-2.6h2.9v2.6H76.4z
				 M76.4,45.3v-2.6h2.9v2.6H76.4z M76.4,42.4v-2.6h2.9v2.6H76.4z M76.4,39.6v-2.6h2.9v2.6H76.4z M76.4,36.7v-2.6h2.9v2.6H76.4z
				 M76.4,33.9v-2.6h2.9v2.6H76.4z M76.4,31v-2.6h2.9V31H76.4z M76.1,31h-2.9v-2.6h2.9V31z M73,31h-2.9v-2.6H73V31z M69.9,31H67
				v-2.6h2.9V31z M66.8,31h-2.9v-2.6h2.9V31z M63.6,31h-2.9v-2.6h2.9V31z M60.5,31h-2.9v-2.6h2.9V31z M57.4,31h-2.9v-2.6h2.9V31z
				 M54.3,31h-2.9v-2.6h2.9V31z M51.1,31h-2.9v-2.6h2.9V31z M48,31h-2.9v-2.6H48V31z M44.9,31H42v-2.6h2.9V31z M41.8,31h-2.9v-2.6
				h2.9V31z M38.6,31h-2.9v-2.6h2.9V31z M35.5,31h-2.9v-2.6h2.9V31z M32.4,31h-2.9v-2.6h2.9V31z M29.3,31h-2.9v-2.6h2.9V31z
				 M26.1,31h-2.9v-2.6h2.9V31z M23,31h-2.9v-2.6H23V31z M19.9,31H17v-2.6h2.9V31z M16.8,31h-2.9v-2.6h2.9V31z M13.6,31h-2.9v-2.6
				h2.9V31z M10.5,31H7.6v-2.6h2.9V31z M7.4,31H4.5v-2.6h2.9V31z M7.4,31.2v2.6H4.5v-2.6H7.4z M7.4,34.1v2.6H4.5v-2.6H7.4z
				 M7.4,36.9v2.6H4.5v-2.6H7.4z M7.4,39.8v2.6H4.5v-2.6H7.4z M7.4,42.6v2.6H4.5v-2.6H7.4z M7.4,45.5v2.6H4.5v-2.6H7.4z M7.4,48.3
				V51H4.5v-2.6H7.4z M7.4,51.2v2.6H4.5v-2.6H7.4z M7.4,54v2.6H4.5V54H7.4z M7.4,56.9v2.6H4.5v-2.6H7.4z M7.4,59.7v2.6H4.5v-2.6H7.4
				z M7.4,62.6v2.6H4.5v-2.6H7.4z M7.4,65.4v2.6H4.5v-2.6H7.4z M7.4,68.3v2.6H4.5v-2.6H7.4z M7.4,71.1v2.6H4.5v-2.6H7.4z M7.6,71.1
				h2.9v2.6H7.6V71.1z M10.7,71.1h2.9v2.6h-2.9V71.1z M13.9,71.1h2.9v2.6h-2.9V71.1z M17,71.1h2.9v2.6H17V71.1z M20.1,71.1H23v2.6
				h-2.9V71.1z M23.3,71.1h2.9v2.6h-2.9V71.1z M26.4,71.1h2.9v2.6h-2.9V71.1z M29.5,71.1h2.9v2.6h-2.9V71.1z M32.6,71.1h2.9v2.6
				h-2.9V71.1z M35.8,71.1h2.9v2.6h-2.9V71.1z M38.9,71.1h2.9v2.6h-2.9V71.1z M42,71.1h2.9v2.6H42V71.1z M45.1,71.1H48v2.6h-2.9
				V71.1z M48.3,71.1h2.9v2.6h-2.9V71.1z M51.4,71.1h2.9v2.6h-2.9V71.1z M54.5,71.1h2.9v2.6h-2.9V71.1z M57.6,71.1h2.9v2.6h-2.9
				V71.1z M60.8,71.1h2.9v2.6h-2.9V71.1z M63.9,71.1h2.9v2.6h-2.9V71.1z M67,71.1h2.9v2.6H67V71.1z M70.1,71.1H73v2.6h-2.9V71.1z
				 M73.3,71.1h2.9v2.6h-2.9V71.1z M76.4,71.1h2.9v2.6h-2.9V71.1z M79.5,71.1h2.9v2.6h-2.9V71.1z M79.5,70.9v-2.6h2.9v2.6H79.5z
				 M79.5,68.1v-2.6h2.9v2.6H79.5z M79.5,65.2v-2.6h2.9v2.6H79.5z M79.5,62.4v-2.6h2.9v2.6H79.5z M79.5,59.5v-2.6h2.9v2.6H79.5z
				 M79.5,56.7V54h2.9v2.6H79.5z M79.5,53.8v-2.6h2.9v2.6H79.5z M79.5,51v-2.6h2.9V51H79.5z M79.5,48.1v-2.6h2.9v2.6H79.5z
				 M79.5,45.3v-2.6h2.9v2.6H79.5z M79.5,42.4v-2.6h2.9v2.6H79.5z M79.5,39.6v-2.6h2.9v2.6H79.5z M79.5,36.7v-2.6h2.9v2.6H79.5z
				 M79.5,33.9v-2.6h2.9v2.6H79.5z M79.5,31v-2.6h2.9V31H79.5z M79.5,28.2v-2.6h2.9v2.6H79.5z M79.3,28.2h-2.9v-2.6h2.9V28.2z
				 M76.1,28.2h-2.9v-2.6h2.9V28.2z M73,28.2h-2.9v-2.6H73V28.2z M69.9,28.2H67v-2.6h2.9V28.2z M66.8,28.2h-2.9v-2.6h2.9V28.2z
				 M63.6,28.2h-2.9v-2.6h2.9V28.2z M60.5,28.2h-2.9v-2.6h2.9V28.2z M57.4,28.2h-2.9v-2.6h2.9V28.2z M54.3,28.2h-2.9v-2.6h2.9V28.2z
				 M51.1,28.2h-2.9v-2.6h2.9V28.2z M48,28.2h-2.9v-2.6H48V28.2z M44.9,28.2H42v-2.6h2.9V28.2z M41.8,28.2h-2.9v-2.6h2.9V28.2z
				 M38.6,28.2h-2.9v-2.6h2.9V28.2z M35.5,28.2h-2.9v-2.6h2.9V28.2z M32.4,28.2h-2.9v-2.6h2.9V28.2z M29.3,28.2h-2.9v-2.6h2.9V28.2z
				 M26.1,28.2h-2.9v-2.6h2.9V28.2z M23,28.2h-2.9v-2.6H23V28.2z M19.9,28.2H17v-2.6h2.9V28.2z M16.8,28.2h-2.9v-2.6h2.9V28.2z
				 M13.6,28.2h-2.9v-2.6h2.9V28.2z M10.5,28.2H7.6v-2.6h2.9V28.2z M7.4,28.2H4.5v-2.6h2.9V28.2z M4.2,28.2H1.4v-2.6h2.9V28.2z
				 M4.2,28.4V31H1.4v-2.6H4.2z M4.2,31.2v2.6H1.4v-2.6H4.2z M4.2,34.1v2.6H1.4v-2.6H4.2z M4.2,36.9v2.6H1.4v-2.6H4.2z M4.2,39.8
				v2.6H1.4v-2.6H4.2z M4.2,42.6v2.6H1.4v-2.6H4.2z M4.2,45.5v2.6H1.4v-2.6H4.2z M4.2,48.3V51H1.4v-2.6H4.2z M4.2,51.2v2.6H1.4v-2.6
				H4.2z M4.2,54v2.6H1.4V54H4.2z M4.2,56.9v2.6H1.4v-2.6H4.2z M4.2,59.7v2.6H1.4v-2.6H4.2z M4.2,62.6v2.6H1.4v-2.6H4.2z M4.2,65.4
				v2.6H1.4v-2.6H4.2z M4.2,68.3v2.6H1.4v-2.6H4.2z M4.2,71.1v2.6H1.4v-2.6H4.2z M4.2,74v2.6H1.4V74H4.2z M4.5,74h2.9v2.6H4.5V74z
				 M7.6,74h2.9v2.6H7.6V74z M10.7,74h2.9v2.6h-2.9V74z M13.9,74h2.9v2.6h-2.9V74z M17,74h2.9v2.6H17V74z M20.1,74H23v2.6h-2.9V74z
				 M23.3,74h2.9v2.6h-2.9V74z M26.4,74h2.9v2.6h-2.9V74z M29.5,74h2.9v2.6h-2.9V74z M32.6,74h2.9v2.6h-2.9V74z M35.8,74h2.9v2.6
				h-2.9V74z M38.9,74h2.9v2.6h-2.9V74z M42,74h2.9v2.6H42V74z M45.1,74H48v2.6h-2.9V74z M48.3,74h2.9v2.6h-2.9V74z M51.4,74h2.9
				v2.6h-2.9V74z M54.5,74h2.9v2.6h-2.9V74z M57.6,74h2.9v2.6h-2.9V74z M60.8,74h2.9v2.6h-2.9V74z M63.9,74h2.9v2.6h-2.9V74z M67,74
				h2.9v2.6H67V74z M70.1,74H73v2.6h-2.9V74z M73.3,74h2.9v2.6h-2.9V74z M76.4,74h2.9v2.6h-2.9V74z M79.5,74h2.9v2.6h-2.9V74z
				 M82.6,74h2.9v2.6h-2.9V74z M82.6,73.8v-2.6h2.9v2.6H82.6z M82.6,70.9v-2.6h2.9v2.6H82.6z M82.6,68.1v-2.6h2.9v2.6H82.6z
				 M82.6,65.2v-2.6h2.9v2.6H82.6z M82.6,62.4v-2.6h2.9v2.6H82.6z M82.6,59.5v-2.6h2.9v2.6H82.6z M82.6,56.7V54h2.9v2.6H82.6z
				 M82.6,53.8v-2.6h2.9v2.6H82.6z M82.6,51v-2.6h2.9V51H82.6z M82.6,48.1v-2.6h2.9v2.6H82.6z M82.6,45.3v-2.6h2.9v2.6H82.6z
				 M82.6,42.4v-2.6h2.9v2.6H82.6z M82.6,39.6v-2.6h2.9v2.6H82.6z M82.6,36.7v-2.6h2.9v2.6H82.6z M82.6,33.9v-2.6h2.9v2.6H82.6z
				 M82.6,31v-2.6h2.9V31H82.6z M82.6,28.2v-2.6h2.9v2.6H82.6z M82.6,25.3v-2.6h2.9v2.6H82.6z M82.4,25.3h-2.9v-2.6h2.9V25.3z
				 M79.3,25.3h-2.9v-2.6h2.9V25.3z M76.1,25.3h-2.9v-2.6h2.9V25.3z M73,25.3h-2.9v-2.6H73V25.3z M69.9,25.3H67v-2.6h2.9V25.3z
				 M66.8,25.3h-2.9v-2.6h2.9V25.3z M63.6,25.3h-2.9v-2.6h2.9V25.3z M60.5,25.3h-2.9v-2.6h2.9V25.3z M57.4,25.3h-2.9v-2.6h2.9V25.3z
				 M54.3,25.3h-2.9v-2.6h2.9V25.3z M51.1,25.3h-2.9v-2.6h2.9V25.3z M48,25.3h-2.9v-2.6H48V25.3z M44.9,25.3H42v-2.6h2.9V25.3z
				 M41.8,25.3h-2.9v-2.6h2.9V25.3z M38.6,25.3h-2.9v-2.6h2.9V25.3z M35.5,25.3h-2.9v-2.6h2.9V25.3z M32.4,25.3h-2.9v-2.6h2.9V25.3z
				 M29.3,25.3h-2.9v-2.6h2.9V25.3z M26.1,25.3h-2.9v-2.6h2.9V25.3z M23,25.3h-2.9v-2.6H23V25.3z M19.9,25.3H17v-2.6h2.9V25.3z
				 M16.8,25.3h-2.9v-2.6h2.9V25.3z M13.6,25.3h-2.9v-2.6h2.9V25.3z M10.5,25.3H7.6v-2.6h2.9V25.3z M7.4,25.3H4.5v-2.6h2.9V25.3z
				 M4.2,25.3H1.4v-2.6h2.9V25.3z M1.1,25.3h-2.9v-2.6h2.9V25.3z M1.1,25.5v2.6h-2.9v-2.6H1.1z M1.1,28.4V31h-2.9v-2.6H1.1z
				 M1.1,31.2v2.6h-2.9v-2.6H1.1z M1.1,34.1v2.6h-2.9v-2.6H1.1z M1.1,36.9v2.6h-2.9v-2.6H1.1z M1.1,39.8v2.6h-2.9v-2.6H1.1z
				 M1.1,42.6v2.6h-2.9v-2.6H1.1z M1.1,45.5v2.6h-2.9v-2.6H1.1z M1.1,48.3V51h-2.9v-2.6H1.1z M1.1,51.2v2.6h-2.9v-2.6H1.1z M1.1,54
				v2.6h-2.9V54H1.1z M1.1,56.9v2.6h-2.9v-2.6H1.1z M1.1,59.7v2.6h-2.9v-2.6H1.1z M1.1,62.6v2.6h-2.9v-2.6H1.1z M1.1,65.4v2.6h-2.9
				v-2.6H1.1z M1.1,68.3v2.6h-2.9v-2.6H1.1z M1.1,71.1v2.6h-2.9v-2.6H1.1z M1.1,74v2.6h-2.9V74H1.1z M1.1,76.8v2.6h-2.9v-2.6H1.1z
				 M1.4,76.8h2.9v2.6H1.4V76.8z M4.5,76.8h2.9v2.6H4.5V76.8z M7.6,76.8h2.9v2.6H7.6V76.8z M10.7,76.8h2.9v2.6h-2.9V76.8z
				 M13.9,76.8h2.9v2.6h-2.9V76.8z M17,76.8h2.9v2.6H17V76.8z M20.1,76.8H23v2.6h-2.9V76.8z M23.3,76.8h2.9v2.6h-2.9V76.8z
				 M26.4,76.8h2.9v2.6h-2.9V76.8z M29.5,76.8h2.9v2.6h-2.9V76.8z M32.6,76.8h2.9v2.6h-2.9V76.8z M35.8,76.8h2.9v2.6h-2.9V76.8z
				 M38.9,76.8h2.9v2.6h-2.9V76.8z M42,76.8h2.9v2.6H42V76.8z M45.1,76.8H48v2.6h-2.9V76.8z M48.3,76.8h2.9v2.6h-2.9V76.8z
				 M51.4,76.8h2.9v2.6h-2.9V76.8z M54.5,76.8h2.9v2.6h-2.9V76.8z M57.6,76.8h2.9v2.6h-2.9V76.8z M60.8,76.8h2.9v2.6h-2.9V76.8z
				 M63.9,76.8h2.9v2.6h-2.9V76.8z M67,76.8h2.9v2.6H67V76.8z M70.1,76.8H73v2.6h-2.9V76.8z M73.3,76.8h2.9v2.6h-2.9V76.8z
				 M76.4,76.8h2.9v2.6h-2.9V76.8z M79.5,76.8h2.9v2.6h-2.9V76.8z M82.6,76.8h2.9v2.6h-2.9V76.8z M85.8,76.8h2.9v2.6h-2.9V76.8z
				 M85.8,76.6V74h2.9v2.6H85.8z M85.8,73.8v-2.6h2.9v2.6H85.8z M85.8,70.9v-2.6h2.9v2.6H85.8z M85.8,68.1v-2.6h2.9v2.6H85.8z
				 M85.8,65.2v-2.6h2.9v2.6H85.8z M85.8,62.4v-2.6h2.9v2.6H85.8z M85.8,59.5v-2.6h2.9v2.6H85.8z M85.8,56.7V54h2.9v2.6H85.8z
				 M85.8,53.8v-2.6h2.9v2.6H85.8z M85.8,51v-2.6h2.9V51H85.8z M85.8,48.1v-2.6h2.9v2.6H85.8z M85.8,45.3v-2.6h2.9v2.6H85.8z
				 M85.8,42.4v-2.6h2.9v2.6H85.8z M85.8,39.6v-2.6h2.9v2.6H85.8z M85.8,36.7v-2.6h2.9v2.6H85.8z M85.8,33.9v-2.6h2.9v2.6H85.8z
				 M85.8,31v-2.6h2.9V31H85.8z M85.8,28.2v-2.6h2.9v2.6H85.8z M85.8,25.3v-2.6h2.9v2.6H85.8z M85.8,22.5v-2.6h2.9v2.6H85.8z
				 M85.5,22.5h-2.9v-2.6h2.9V22.5z M82.4,22.5h-2.9v-2.6h2.9V22.5z M79.3,22.5h-2.9v-2.6h2.9V22.5z M76.1,22.5h-2.9v-2.6h2.9V22.5z
				 M73,22.5h-2.9v-2.6H73V22.5z M69.9,22.5H67v-2.6h2.9V22.5z M66.8,22.5h-2.9v-2.6h2.9V22.5z M63.6,22.5h-2.9v-2.6h2.9V22.5z
				 M60.5,22.5h-2.9v-2.6h2.9V22.5z M57.4,22.5h-2.9v-2.6h2.9V22.5z M54.3,22.5h-2.9v-2.6h2.9V22.5z M51.1,22.5h-2.9v-2.6h2.9V22.5z
				 M48,22.5h-2.9v-2.6H48V22.5z M44.9,22.5H42v-2.6h2.9V22.5z M41.8,22.5h-2.9v-2.6h2.9V22.5z M38.6,22.5h-2.9v-2.6h2.9V22.5z
				 M35.5,22.5h-2.9v-2.6h2.9V22.5z M32.4,22.5h-2.9v-2.6h2.9V22.5z M29.3,22.5h-2.9v-2.6h2.9V22.5z M26.1,22.5h-2.9v-2.6h2.9V22.5z
				 M23,22.5h-2.9v-2.6H23V22.5z M19.9,22.5H17v-2.6h2.9V22.5z M16.8,22.5h-2.9v-2.6h2.9V22.5z M13.6,22.5h-2.9v-2.6h2.9V22.5z
				 M10.5,22.5H7.6v-2.6h2.9V22.5z M7.4,22.5H4.5v-2.6h2.9V22.5z M4.2,22.5H1.4v-2.6h2.9V22.5z M1.1,22.5h-2.9v-2.6h2.9V22.5z
				 M-2,22.5h-2.9v-2.6H-2V22.5z M-2,22.7v2.6h-2.9v-2.6H-2z M-2,25.5v2.6h-2.9v-2.6H-2z M-2,28.4V31h-2.9v-2.6H-2z M-2,31.2v2.6
				h-2.9v-2.6H-2z M-2,34.1v2.6h-2.9v-2.6H-2z M-2,36.9v2.6h-2.9v-2.6H-2z M-2,39.8v2.6h-2.9v-2.6H-2z M-2,42.6v2.6h-2.9v-2.6H-2z
				 M-2,45.5v2.6h-2.9v-2.6H-2z M-2,48.3V51h-2.9v-2.6H-2z M-2,51.2v2.6h-2.9v-2.6H-2z M-2,54v2.6h-2.9V54H-2z M-2,56.9v2.6h-2.9
				v-2.6H-2z M-2,59.7v2.6h-2.9v-2.6H-2z M-2,62.6v2.6h-2.9v-2.6H-2z M-2,65.4v2.6h-2.9v-2.6H-2z M-2,68.3v2.6h-2.9v-2.6H-2z
				 M-2,71.1v2.6h-2.9v-2.6H-2z M-2,74v2.6h-2.9V74H-2z M-2,76.8v2.6h-2.9v-2.6H-2z M-2,79.7v2.6h-2.9v-2.6H-2z M-1.8,79.7h2.9v2.6
				h-2.9V79.7z M1.4,79.7h2.9v2.6H1.4V79.7z M4.5,79.7h2.9v2.6H4.5V79.7z M7.6,79.7h2.9v2.6H7.6V79.7z M10.7,79.7h2.9v2.6h-2.9V79.7
				z M13.9,79.7h2.9v2.6h-2.9V79.7z M17,79.7h2.9v2.6H17V79.7z M20.1,79.7H23v2.6h-2.9V79.7z M23.3,79.7h2.9v2.6h-2.9V79.7z
				 M26.4,79.7h2.9v2.6h-2.9V79.7z M29.5,79.7h2.9v2.6h-2.9V79.7z M32.6,79.7h2.9v2.6h-2.9V79.7z M35.8,79.7h2.9v2.6h-2.9V79.7z
				 M38.9,79.7h2.9v2.6h-2.9V79.7z M42,79.7h2.9v2.6H42V79.7z M45.1,79.7H48v2.6h-2.9V79.7z M48.3,79.7h2.9v2.6h-2.9V79.7z
				 M51.4,79.7h2.9v2.6h-2.9V79.7z M54.5,79.7h2.9v2.6h-2.9V79.7z M57.6,79.7h2.9v2.6h-2.9V79.7z M60.8,79.7h2.9v2.6h-2.9V79.7z
				 M63.9,79.7h2.9v2.6h-2.9V79.7z M67,79.7h2.9v2.6H67V79.7z M70.1,79.7H73v2.6h-2.9V79.7z M73.3,79.7h2.9v2.6h-2.9V79.7z
				 M76.4,79.7h2.9v2.6h-2.9V79.7z M79.5,79.7h2.9v2.6h-2.9V79.7z M82.6,79.7h2.9v2.6h-2.9V79.7z M85.8,79.7h2.9v2.6h-2.9V79.7z
				 M88.9,79.7h2.9v2.6h-2.9V79.7z M88.9,79.5v-2.6h2.9v2.6H88.9z M88.9,76.6V74h2.9v2.6H88.9z M88.9,73.8v-2.6h2.9v2.6H88.9z
				 M88.9,70.9v-2.6h2.9v2.6H88.9z M88.9,68.1v-2.6h2.9v2.6H88.9z M88.9,65.2v-2.6h2.9v2.6H88.9z M88.9,62.4v-2.6h2.9v2.6H88.9z
				 M88.9,59.5v-2.6h2.9v2.6H88.9z M88.9,56.7V54h2.9v2.6H88.9z M88.9,53.8v-2.6h2.9v2.6H88.9z M88.9,51v-2.6h2.9V51H88.9z
				 M88.9,48.1v-2.6h2.9v2.6H88.9z M88.9,45.3v-2.6h2.9v2.6H88.9z M88.9,42.4v-2.6h2.9v2.6H88.9z M88.9,39.6v-2.6h2.9v2.6H88.9z
				 M88.9,36.7v-2.6h2.9v2.6H88.9z M88.9,33.9v-2.6h2.9v2.6H88.9z M88.9,31v-2.6h2.9V31H88.9z M88.9,28.2v-2.6h2.9v2.6H88.9z
				 M88.9,25.3v-2.6h2.9v2.6H88.9z M88.9,22.5v-2.6h2.9v2.6H88.9z M88.9,19.6V17h2.9v2.6H88.9z M88.6,19.6h-2.9V17h2.9V19.6z
				 M85.5,19.6h-2.9V17h2.9V19.6z M82.4,19.6h-2.9V17h2.9V19.6z M79.3,19.6h-2.9V17h2.9V19.6z M76.1,19.6h-2.9V17h2.9V19.6z
				 M73,19.6h-2.9V17H73V19.6z M69.9,19.6H67V17h2.9V19.6z M66.8,19.6h-2.9V17h2.9V19.6z M63.6,19.6h-2.9V17h2.9V19.6z M60.5,19.6
				h-2.9V17h2.9V19.6z M57.4,19.6h-2.9V17h2.9V19.6z M54.3,19.6h-2.9V17h2.9V19.6z M51.1,19.6h-2.9V17h2.9V19.6z M48,19.6h-2.9V17
				H48V19.6z M44.9,19.6H42V17h2.9V19.6z M41.8,19.6h-2.9V17h2.9V19.6z M38.6,19.6h-2.9V17h2.9V19.6z M35.5,19.6h-2.9V17h2.9V19.6z
				 M32.4,19.6h-2.9V17h2.9V19.6z M29.3,19.6h-2.9V17h2.9V19.6z M26.1,19.6h-2.9V17h2.9V19.6z M23,19.6h-2.9V17H23V19.6z M19.9,19.6
				H17V17h2.9V19.6z M16.8,19.6h-2.9V17h2.9V19.6z M13.6,19.6h-2.9V17h2.9V19.6z M10.5,19.6H7.6V17h2.9V19.6z M7.4,19.6H4.5V17h2.9
				V19.6z M4.2,19.6H1.4V17h2.9V19.6z M1.1,19.6h-2.9V17h2.9V19.6z M-2,19.6h-2.9V17H-2V19.6z M-5.1,19.6H-8V17h2.9V19.6z
				 M-5.1,19.8v2.6H-8v-2.6H-5.1z M-5.1,22.7v2.6H-8v-2.6H-5.1z M-5.1,25.5v2.6H-8v-2.6H-5.1z M-5.1,28.4V31H-8v-2.6H-5.1z
				 M-5.1,31.2v2.6H-8v-2.6H-5.1z M-5.1,34.1v2.6H-8v-2.6H-5.1z M-5.1,36.9v2.6H-8v-2.6H-5.1z M-5.1,39.8v2.6H-8v-2.6H-5.1z
				 M-5.1,42.6v2.6H-8v-2.6H-5.1z M-5.1,45.5v2.6H-8v-2.6H-5.1z M-5.1,48.3V51H-8v-2.6H-5.1z M-5.1,51.2v2.6H-8v-2.6H-5.1z M-5.1,54
				v2.6H-8V54H-5.1z M-5.1,56.9v2.6H-8v-2.6H-5.1z M-5.1,59.7v2.6H-8v-2.6H-5.1z M-5.1,62.6v2.6H-8v-2.6H-5.1z M-5.1,65.4v2.6H-8
				v-2.6H-5.1z M-5.1,68.3v2.6H-8v-2.6H-5.1z M-5.1,71.1v2.6H-8v-2.6H-5.1z M-5.1,74v2.6H-8V74H-5.1z M-5.1,76.8v2.6H-8v-2.6H-5.1z
				 M-5.1,79.7v2.6H-8v-2.6H-5.1z M-5.1,82.5v2.6H-8v-2.6H-5.1z M-4.9,82.5H-2v2.6h-2.9V82.5z M-1.8,82.5h2.9v2.6h-2.9V82.5z
				 M1.4,82.5h2.9v2.6H1.4V82.5z M4.5,82.5h2.9v2.6H4.5V82.5z M7.6,82.5h2.9v2.6H7.6V82.5z M10.7,82.5h2.9v2.6h-2.9V82.5z
				 M13.9,82.5h2.9v2.6h-2.9V82.5z M17,82.5h2.9v2.6H17V82.5z M20.1,82.5H23v2.6h-2.9V82.5z M23.3,82.5h2.9v2.6h-2.9V82.5z
				 M26.4,82.5h2.9v2.6h-2.9V82.5z M29.5,82.5h2.9v2.6h-2.9V82.5z M32.6,82.5h2.9v2.6h-2.9V82.5z M35.8,82.5h2.9v2.6h-2.9V82.5z
				 M38.9,82.5h2.9v2.6h-2.9V82.5z M42,82.5h2.9v2.6H42V82.5z M45.1,82.5H48v2.6h-2.9V82.5z M48.3,82.5h2.9v2.6h-2.9V82.5z
				 M51.4,82.5h2.9v2.6h-2.9V82.5z M54.5,82.5h2.9v2.6h-2.9V82.5z M57.6,82.5h2.9v2.6h-2.9V82.5z M60.8,82.5h2.9v2.6h-2.9V82.5z
				 M63.9,82.5h2.9v2.6h-2.9V82.5z M67,82.5h2.9v2.6H67V82.5z M70.1,82.5H73v2.6h-2.9V82.5z M73.3,82.5h2.9v2.6h-2.9V82.5z
				 M76.4,82.5h2.9v2.6h-2.9V82.5z M79.5,82.5h2.9v2.6h-2.9V82.5z M82.6,82.5h2.9v2.6h-2.9V82.5z M85.8,82.5h2.9v2.6h-2.9V82.5z
				 M88.9,82.5h2.9v2.6h-2.9V82.5z M92,82.5h2.9v2.6H92V82.5z M92,82.3v-2.6h2.9v2.6H92z M92,79.5v-2.6h2.9v2.6H92z M92,76.6V74h2.9
				v2.6H92z M92,73.8v-2.6h2.9v2.6H92z M92,70.9v-2.6h2.9v2.6H92z M92,68.1v-2.6h2.9v2.6H92z M92,65.2v-2.6h2.9v2.6H92z M92,62.4
				v-2.6h2.9v2.6H92z M92,59.5v-2.6h2.9v2.6H92z M92,56.7V54h2.9v2.6H92z M92,53.8v-2.6h2.9v2.6H92z M92,51v-2.6h2.9V51H92z
				 M92,48.1v-2.6h2.9v2.6H92z M92,45.3v-2.6h2.9v2.6H92z M92,42.4v-2.6h2.9v2.6H92z M92,39.6v-2.6h2.9v2.6H92z M92,36.7v-2.6h2.9
				v2.6H92z M92,33.9v-2.6h2.9v2.6H92z M92,31v-2.6h2.9V31H92z M92,28.2v-2.6h2.9v2.6H92z M92,25.3v-2.6h2.9v2.6H92z M92,22.5v-2.6
				h2.9v2.6H92z M92,19.6V17h2.9v2.6H92z M92,16.8v-2.6h2.9v2.6H92z M91.8,16.8h-2.9v-2.6h2.9V16.8z M88.6,16.8h-2.9v-2.6h2.9V16.8z
				 M85.5,16.8h-2.9v-2.6h2.9V16.8z M82.4,16.8h-2.9v-2.6h2.9V16.8z M79.3,16.8h-2.9v-2.6h2.9V16.8z M76.1,16.8h-2.9v-2.6h2.9V16.8z
				 M73,16.8h-2.9v-2.6H73V16.8z M69.9,16.8H67v-2.6h2.9V16.8z M66.8,16.8h-2.9v-2.6h2.9V16.8z M63.6,16.8h-2.9v-2.6h2.9V16.8z
				 M60.5,16.8h-2.9v-2.6h2.9V16.8z M57.4,16.8h-2.9v-2.6h2.9V16.8z M54.3,16.8h-2.9v-2.6h2.9V16.8z M51.1,16.8h-2.9v-2.6h2.9V16.8z
				 M48,16.8h-2.9v-2.6H48V16.8z M44.9,16.8H42v-2.6h2.9V16.8z M41.8,16.8h-2.9v-2.6h2.9V16.8z M38.6,16.8h-2.9v-2.6h2.9V16.8z
				 M35.5,16.8h-2.9v-2.6h2.9V16.8z M32.4,16.8h-2.9v-2.6h2.9V16.8z M29.3,16.8h-2.9v-2.6h2.9V16.8z M26.1,16.8h-2.9v-2.6h2.9V16.8z
				 M23,16.8h-2.9v-2.6H23V16.8z M19.9,16.8H17v-2.6h2.9V16.8z M16.8,16.8h-2.9v-2.6h2.9V16.8z M13.6,16.8h-2.9v-2.6h2.9V16.8z
				 M10.5,16.8H7.6v-2.6h2.9V16.8z M7.4,16.8H4.5v-2.6h2.9V16.8z M4.2,16.8H1.4v-2.6h2.9V16.8z M1.1,16.8h-2.9v-2.6h2.9V16.8z
				 M-2,16.8h-2.9v-2.6H-2V16.8z M-5.1,16.8H-8v-2.6h2.9V16.8z M-8.3,16.8h-2.9v-2.6h2.9V16.8z M-8.3,17v2.6h-2.9V17H-8.3z
				 M-8.3,19.8v2.6h-2.9v-2.6H-8.3z M-8.3,22.7v2.6h-2.9v-2.6H-8.3z M-8.3,25.5v2.6h-2.9v-2.6H-8.3z M-8.3,28.4V31h-2.9v-2.6H-8.3z
				 M-8.3,31.2v2.6h-2.9v-2.6H-8.3z M-8.3,34.1v2.6h-2.9v-2.6H-8.3z M-8.3,36.9v2.6h-2.9v-2.6H-8.3z M-8.3,39.8v2.6h-2.9v-2.6H-8.3z
				 M-8.3,42.6v2.6h-2.9v-2.6H-8.3z M-8.3,45.5v2.6h-2.9v-2.6H-8.3z M-8.3,48.3V51h-2.9v-2.6H-8.3z M-8.3,51.2v2.6h-2.9v-2.6H-8.3z
				 M-8.3,54v2.6h-2.9V54H-8.3z M-8.3,56.9v2.6h-2.9v-2.6H-8.3z M-8.3,59.7v2.6h-2.9v-2.6H-8.3z M-8.3,62.6v2.6h-2.9v-2.6H-8.3z
				 M-8.3,65.4v2.6h-2.9v-2.6H-8.3z M-8.3,68.3v2.6h-2.9v-2.6H-8.3z M-8.3,71.1v2.6h-2.9v-2.6H-8.3z M-8.3,74v2.6h-2.9V74H-8.3z
				 M-8.3,76.8v2.6h-2.9v-2.6H-8.3z M-8.3,79.7v2.6h-2.9v-2.6H-8.3z M-8.3,82.5v2.6h-2.9v-2.6H-8.3z M-8.3,85.4V88h-2.9v-2.6H-8.3z
				 M-8,85.4h2.9V88H-8V85.4z M-4.9,85.4H-2V88h-2.9V85.4z M-1.8,85.4h2.9V88h-2.9V85.4z M1.4,85.4h2.9V88H1.4V85.4z M4.5,85.4h2.9
				V88H4.5V85.4z M7.6,85.4h2.9V88H7.6V85.4z M10.7,85.4h2.9V88h-2.9V85.4z M13.9,85.4h2.9V88h-2.9V85.4z M17,85.4h2.9V88H17V85.4z
				 M20.1,85.4H23V88h-2.9V85.4z M23.3,85.4h2.9V88h-2.9V85.4z M26.4,85.4h2.9V88h-2.9V85.4z M29.5,85.4h2.9V88h-2.9V85.4z
				 M32.6,85.4h2.9V88h-2.9V85.4z M35.8,85.4h2.9V88h-2.9V85.4z M38.9,85.4h2.9V88h-2.9V85.4z M42,85.4h2.9V88H42V85.4z M45.1,85.4
				H48V88h-2.9V85.4z M48.3,85.4h2.9V88h-2.9V85.4z M51.4,85.4h2.9V88h-2.9V85.4z M54.5,85.4h2.9V88h-2.9V85.4z M57.6,85.4h2.9V88
				h-2.9V85.4z M60.8,85.4h2.9V88h-2.9V85.4z M63.9,85.4h2.9V88h-2.9V85.4z M67,85.4h2.9V88H67V85.4z M70.1,85.4H73V88h-2.9V85.4z
				 M73.3,85.4h2.9V88h-2.9V85.4z M76.4,85.4h2.9V88h-2.9V85.4z M79.5,85.4h2.9V88h-2.9V85.4z M82.6,85.4h2.9V88h-2.9V85.4z
				 M85.8,85.4h2.9V88h-2.9V85.4z M88.9,85.4h2.9V88h-2.9V85.4z M92,85.4h2.9V88H92V85.4z M95.1,85.4H98V88h-2.9V85.4z M95.1,85.2
				v-2.6H98v2.6H95.1z M95.1,82.3v-2.6H98v2.6H95.1z M95.1,79.5v-2.6H98v2.6H95.1z M95.1,76.6V74H98v2.6H95.1z M95.1,73.8v-2.6H98
				v2.6H95.1z M95.1,70.9v-2.6H98v2.6H95.1z M95.1,68.1v-2.6H98v2.6H95.1z M95.1,65.2v-2.6H98v2.6H95.1z M95.1,62.4v-2.6H98v2.6
				H95.1z M95.1,59.5v-2.6H98v2.6H95.1z M95.1,56.7V54H98v2.6H95.1z M95.1,53.8v-2.6H98v2.6H95.1z M95.1,51v-2.6H98V51H95.1z
				 M95.1,48.1v-2.6H98v2.6H95.1z M95.1,45.3v-2.6H98v2.6H95.1z M95.1,42.4v-2.6H98v2.6H95.1z M95.1,39.6v-2.6H98v2.6H95.1z
				 M95.1,36.7v-2.6H98v2.6H95.1z M95.1,33.9v-2.6H98v2.6H95.1z M95.1,31v-2.6H98V31H95.1z M95.1,28.2v-2.6H98v2.6H95.1z M95.1,25.3
				v-2.6H98v2.6H95.1z M95.1,22.5v-2.6H98v2.6H95.1z M95.1,19.6V17H98v2.6H95.1z M95.1,16.8v-2.6H98v2.6H95.1z M94.9,11.3v2.6H92
				v-2.6H94.9z M91.8,11.3v2.6h-2.9v-2.6H91.8z M88.6,11.3v2.6h-2.9v-2.6H88.6z M85.5,11.3v2.6h-2.9v-2.6H85.5z M82.4,11.3v2.6h-2.9
				v-2.6H82.4z M79.3,11.3v2.6h-2.9v-2.6H79.3z M76.1,11.3v2.6h-2.9v-2.6H76.1z M73,11.3v2.6h-2.9v-2.6H73z M69.9,11.3v2.6H67v-2.6
				H69.9z M66.8,11.3v2.6h-2.9v-2.6H66.8z M63.6,11.3v2.6h-2.9v-2.6H63.6z M60.5,11.3v2.6h-2.9v-2.6H60.5z M57.4,11.3v2.6h-2.9v-2.6
				H57.4z M54.3,11.3v2.6h-2.9v-2.6H54.3z M51.1,11.3v2.6h-2.9v-2.6H51.1z M48,11.3v2.6h-2.9v-2.6H48z M44.9,11.3v2.6H42v-2.6H44.9z
				 M41.8,11.3v2.6h-2.9v-2.6H41.8z M38.6,11.3v2.6h-2.9v-2.6H38.6z M35.5,11.3v2.6h-2.9v-2.6H35.5z M32.4,11.3v2.6h-2.9v-2.6H32.4z
				 M29.3,11.3v2.6h-2.9v-2.6H29.3z M26.1,11.3v2.6h-2.9v-2.6H26.1z M23,11.3v2.6h-2.9v-2.6H23z M19.9,11.3v2.6H17v-2.6H19.9z
				 M16.8,11.3v2.6h-2.9v-2.6H16.8z M13.6,11.3v2.6h-2.9v-2.6H13.6z M10.5,11.3v2.6H7.6v-2.6H10.5z M7.4,11.3v2.6H4.5v-2.6H7.4z
				 M4.2,11.3v2.6H1.4v-2.6H4.2z M1.1,11.3v2.6h-2.9v-2.6H1.1z M-2,11.3v2.6h-2.9v-2.6H-2z M-5.1,11.3v2.6H-8v-2.6H-5.1z M-8.3,11.3
				v2.6h-2.9v-2.6H-8.3z"/>
		</g>
	</g>
</g>
<g id="XMLID_1935_">
	<g id="XMLID_1936_">
		<rect id="XMLID_67_" x="36" y="31" class="st4" width="33" height="2"/>
	</g>
	<g id="XMLID_1940_">
		<rect id="XMLID_65_" x="30" y="31" class="st4" width="4" height="2"/>
	</g>
</g>
<g id="XMLID_1938_">
	<g id="XMLID_1941_">
		<rect id="XMLID_64_" x="36" y="43" class="st4" width="33" height="2"/>
	</g>
	<g id="XMLID_1939_">
		<rect id="XMLID_63_" x="30" y="43" class="st4" width="4" height="2"/>
	</g>
</g>
<g id="XMLID_14_">
	<g id="XMLID_16_">
		<rect id="XMLID_62_" x="36" y="55" class="st4" width="33" height="2"/>
	</g>
	<g id="XMLID_15_">
		<rect id="XMLID_61_" x="30" y="55" class="st4" width="4" height="2"/>
	</g>
</g>
<g id="XMLID_4_">
	<path id="XMLID_7_" class="st5" d="M78,76.2V64.8c-0.9-0.4-1.9-0.6-3-0.7v11.7c0,1.2-1,2.2-2.2,2.2h-7.3c0.8,1.6,2,3,3.6,4h3
		C75.5,82,78,79.6,78,76.2z"/>
	<path id="XMLID_22_" class="st5" d="M62.2,78h-36C25,78,24,77,24,75.8V26.2c0-1.2,1-2.2,2.2-2.2h46.6c1.2,0,2.2,1,2.2,2.2v34.9
		c1,0.1,2,0.2,3,0.5V26.4c0-3.4-2.5-6.4-6-6.4H60v-5.1c0-2.4-1.7-3.9-4.1-3.9H41.7c-2.4,0-4.7,1.5-4.7,3.9V20H26c-3.4,0-6,3-6,6.4
		v49.8c0,3.4,2.5,5.8,6,5.8h38.6C63.5,80.8,62.8,79.5,62.2,78z M41,14.9c0-0.1,0.5,0.1,0.7,0.1h14.2c0.1,0,0.1-0.1,0.1-0.1V20H41
		V14.9z"/>
</g>
<g id="XMLID_20_">
	<path id="XMLID_44_" class="st4" d="M63.5,67H36v2h26.4C62.7,68.3,63.1,67.6,63.5,67z"/>
	<path id="XMLID_209_" class="st4" d="M69,69v-2h-1.7c-0.6,0.6-1.1,1.3-1.5,2H69z"/>
</g>
<path id="XMLID_68_" class="st6" d="M74.2,64c-5.4,0-9.7,4.4-9.7,9.7c0,5.4,4.4,9.7,9.7,9.7c5.4,0,9.7-4.4,9.7-9.7
	C84,68.4,79.6,64,74.2,64z"/>
<g id="XMLID_1_">
	<g id="XMLID_2_">
		<line id="XMLID_18_" class="st6" x1="74" y1="67" x2="74" y2="80"/>
		<rect id="XMLID_19_" x="73" y="67" class="st1" width="3" height="13"/>
	</g>
	<g id="XMLID_3_">
		<line id="XMLID_5_" class="st6" x1="81" y1="74" x2="68" y2="74"/>
		<rect id="XMLID_17_" x="68" y="72" class="st1" width="13" height="3"/>
	</g>
</g>
</svg>
