<?xml version="1.0" encoding="utf-8"?>
<!-- Generator: Adobe Illustrator 19.0.0, SVG Export Plug-In . SVG Version: 6.00 Build 0)  -->
<svg version="1.1" id="图层_1" xmlns="http://www.w3.org/2000/svg" xmlns:xlink="http://www.w3.org/1999/xlink" x="0px" y="0px"
	 viewBox="0 0 400 400" style="enable-background:new 0 0 400 400;" xml:space="preserve">
<style type="text/css">
	.st0{fill:#EB6454;}
</style>
<path id="XMLID_5_" class="st0" d="M122.6,171.4c-5.9-5.9-15.4-5.9-21.2,0c-5.9,5.9-5.9,15.4,0,21.2l75.4,75.4
	c4.2,4.2,9.8,6.5,15.7,6.5s11.5-2.3,15.7-6.5L390.1,86.1c5.9-5.9,5.9-15.4,0-21.2c-5.9-5.9-15.4-5.9-21.2,0L339,94.8L195,11.6
	L31.9,105.8v188.4L195,388.4l163.1-94.2V150.9l-30,30v95.9L195,353.7L61.9,276.9V123.1L195,46.3l122,70.5L192.5,241.3L122.6,171.4z"
	/>
</svg>
