<svg xmlns="http://www.w3.org/2000/svg" width="280" height="280" viewBox="0 0 280 280">
  <rect width="280" height="280" fill="white"/>
  <!-- Corner markers -->
  <rect x="0" y="0" width="60" height="60" fill="#333"/>
  <rect x="10" y="10" width="40" height="40" fill="white"/>
  <rect x="20" y="20" width="20" height="20" fill="#333"/>
  <rect x="220" y="0" width="60" height="60" fill="#333"/>
  <rect x="230" y="10" width="40" height="40" fill="white"/>
  <rect x="240" y="20" width="20" height="20" fill="#333"/>
  <rect x="0" y="220" width="60" height="60" fill="#333"/>
  <rect x="10" y="230" width="40" height="40" fill="white"/>
  <rect x="20" y="240" width="20" height="20" fill="#333"/>
  <!-- Random data pattern -->
  <g fill="#333">
    <rect x="80" y="0" width="20" height="20"/>
    <rect x="120" y="0" width="20" height="20"/>
    <rect x="160" y="0" width="20" height="20"/>
    <rect x="80" y="20" width="20" height="20"/>
    <rect x="140" y="20" width="20" height="20"/>
    <rect x="180" y="20" width="20" height="20"/>
    <rect x="0" y="80" width="20" height="20"/>
    <rect x="40" y="80" width="20" height="20"/>
    <rect x="80" y="80" width="20" height="20"/>
    <rect x="120" y="80" width="20" height="20"/>
    <rect x="160" y="80" width="20" height="20"/>
    <rect x="200" y="80" width="20" height="20"/>
    <rect x="240" y="80" width="20" height="20"/>
    <rect x="20" y="100" width="20" height="20"/>
    <rect x="60" y="100" width="20" height="20"/>
    <rect x="100" y="100" width="20" height="20"/>
    <rect x="180" y="100" width="20" height="20"/>
    <rect x="220" y="100" width="20" height="20"/>
    <rect x="260" y="100" width="20" height="20"/>
    <rect x="0" y="120" width="20" height="20"/>
    <rect x="40" y="120" width="20" height="20"/>
    <rect x="140" y="120" width="20" height="20"/>
    <rect x="200" y="120" width="20" height="20"/>
    <rect x="240" y="120" width="20" height="20"/>
    <rect x="20" y="140" width="20" height="20"/>
    <rect x="60" y="140" width="20" height="20"/>
    <rect x="100" y="140" width="20" height="20"/>
    <rect x="160" y="140" width="20" height="20"/>
    <rect x="260" y="140" width="20" height="20"/>
    <rect x="80" y="160" width="20" height="20"/>
    <rect x="120" y="160" width="20" height="20"/>
    <rect x="180" y="160" width="20" height="20"/>
    <rect x="220" y="160" width="20" height="20"/>
    <rect x="0" y="180" width="20" height="20"/>
    <rect x="40" y="180" width="20" height="20"/>
    <rect x="100" y="180" width="20" height="20"/>
    <rect x="160" y="180" width="20" height="20"/>
    <rect x="200" y="180" width="20" height="20"/>
    <rect x="240" y="180" width="20" height="20"/>
    <rect x="20" y="200" width="20" height="20"/>
    <rect x="60" y="200" width="20" height="20"/>
    <rect x="120" y="200" width="20" height="20"/>
    <rect x="180" y="200" width="20" height="20"/>
    <rect x="260" y="200" width="20" height="20"/>
    <rect x="80" y="220" width="20" height="20"/>
    <rect x="140" y="220" width="20" height="20"/>
    <rect x="200" y="220" width="20" height="20"/>
    <rect x="240" y="220" width="20" height="20"/>
    <rect x="80" y="240" width="20" height="20"/>
    <rect x="120" y="240" width="20" height="20"/>
    <rect x="160" y="240" width="20" height="20"/>
    <rect x="260" y="240" width="20" height="20"/>
    <rect x="0" y="260" width="20" height="20"/>
    <rect x="40" y="260" width="20" height="20"/>
    <rect x="100" y="260" width="20" height="20"/>
    <rect x="180" y="260" width="20" height="20"/>
    <rect x="220" y="260" width="20" height="20"/>
  </g>
  <!-- Center icon -->
  <circle cx="140" cy="140" r="30" fill="#07c160"/>
  <circle cx="140" cy="140" r="15" fill="white"/>
</svg>