<?xml version="1.0" encoding="utf-8"?>
<!-- Generator: Adobe Illustrator 23.0.0, SVG Export Plug-In . SVG Version: 6.00 Build 0)  -->
<svg version="1.1" id="图层_1" xmlns="http://www.w3.org/2000/svg" xmlns:xlink="http://www.w3.org/1999/xlink" x="0px" y="0px"
	 viewBox="0 0 100 100" style="enable-background:new 0 0 100 100;" xml:space="preserve">
<style type="text/css">
	.st0{fill:#EDF6FC;}
	.st1{fill:#FFFFFF;}
	.st2{fill:#00355D;}
	.st3{fill:#414249;}
	.st4{fill:#53BAF9;}
	.st5{fill:#C6E4F4;}
</style>
<g id="XMLID_153_">
	<circle class="st0" cx="50" cy="50" r="50"/>
</g>
<g>
	<rect x="18" y="26.2" class="st1" width="64.7" height="48.5"/>
	<path class="st2" d="M84.4,76.5H16.3v-52h68.2V76.5z M19.8,73h61.2V28H19.8V73z"/>
</g>
<g>
	<line class="st1" x1="18.4" y1="36.8" x2="82.3" y2="36.8"/>
	<rect x="18.4" y="35" class="st2" width="63.9" height="3.5"/>
</g>
<g>
	<rect x="23.2" y="30" class="st3" width="2.9" height="2.9"/>
</g>
<g>
	<rect x="28.3" y="30" class="st4" width="2.9" height="2.9"/>
</g>
<g>
	<rect x="33.4" y="30" class="st4" width="2.9" height="2.9"/>
</g>
<g>
	<rect x="23.2" y="41.5" class="st4" width="25" height="13.3"/>
</g>
<g>
	<rect x="23.2" y="57.3" class="st4" width="16.9" height="13.3"/>
</g>
<g>
	<rect x="41.9" y="57.3" class="st5" width="16.9" height="13.3"/>
</g>
<g>
	<rect x="60.7" y="57.3" class="st4" width="16.9" height="13.3"/>
</g>
<g>
	<rect x="52.6" y="41.5" class="st5" width="25" height="13.3"/>
</g>
<g>
	<g>
		<path class="st0" d="M79.4,81.1c-0.4,0-0.8-0.1-1.2-0.2l-7-1.8c-2.2-0.6-3.7-2.7-3.6-5l0-0.1l0-0.1c0.1-1,0.5-1.8,1.1-2.6l-3-3
			c-1.4-1.4-1.8-3.4-1-5.2c0.7-1.8,2.5-2.9,4.4-2.9c1.3,0,2.5,0.5,3.4,1.4l1.5,1.6l2.5-2.2c0.8-0.7,1.8-1,2.8-1
			c1.2,0,2.2,0.5,3.1,1.3l6,6.1c1.8,1.8,1.8,4.8,0,6.7l-5.6,5.6C81.9,80.6,80.7,81.1,79.4,81.1z"/>
	</g>
	<g>
		<path class="st3" d="M86.9,72.6l-5.6,5.6c-0.6,0.6-1.6,0.9-2.5,0.7l-7-1.8c-1.3-0.3-2.1-1.5-2-2.8l0-0.1c0.1-1.2,1.2-2.3,2.4-2.3
			l-4.9-4.9c-0.7-0.7-1-1.9-0.6-2.8c0.4-1,1.3-1.6,2.4-1.6c0.7,0,1.3,0.3,1.8,0.8l2.9,3l4-3.5c0.9-0.7,2.2-0.7,3,0.1l6,6.1
			C87.9,70,87.9,71.6,86.9,72.6L86.9,72.6z M71.3,74.2"/>
	</g>
</g>
</svg>
