<?xml version="1.0" encoding="utf-8"?>
<!-- Generator: Adobe Illustrator 23.0.0, SVG Export Plug-In . SVG Version: 6.00 Build 0)  -->
<svg version="1.1" id="图层_1" xmlns="http://www.w3.org/2000/svg" xmlns:xlink="http://www.w3.org/1999/xlink" x="0px" y="0px"
	 viewBox="0 0 90 82" style="enable-background:new 0 0 90 82;" xml:space="preserve">
<style type="text/css">
	.st0{fill:#FFFFFF;}
	.st1{fill:#329680;}
	.st2{fill:#4BB29A;}
	.st3{fill:#20725E;}
	.st4{fill:#2B937C;stroke:#FFFFFF;stroke-width:4;stroke-miterlimit:10;}
	.st5{fill:#F8F9FC;}
	.st6{fill:#E8EFED;}
	.st7{opacity:0.5;fill:#FFFFFF;}
	.st8{opacity:0.65;fill:#FFFFFF;}
	.st9{opacity:0.5;}
	.st10{opacity:0.65;fill:#121B3F;}
	.st11{fill:#2B937C;}
	.st12{fill:#FCE0E3;}
	.st13{fill:#F0F2F2;}
	.st14{fill:#414251;}
	.st15{fill:#FCFEFE;}
	.st16{fill:#DDBFC3;}
	.st17{fill:#227C62;}
	.st18{fill:#53C9AD;}
	.st19{fill:#939697;}
	.st20{fill:#D9DEE2;}
	.st21{fill:#BABABA;}
	.st22{fill:#F4F7F9;}
	.st23{fill:#E8F5F9;}
	.st24{clip-path:url(#SVGID_8_);}
	.st25{fill:#434449;}
	.st26{fill:#FFD5BD;}
	.st27{fill:#FFA17B;}
	.st28{fill:#4F3533;}
	.st29{fill:none;stroke:#8492A6;stroke-width:1.0577;stroke-miterlimit:10;stroke-dasharray:6.358,6.358;}
	.st30{fill:none;stroke:#2B937C;stroke-width:0.9901;stroke-miterlimit:10;stroke-dasharray:5.9448,5.9448;}
	.st31{fill:#414242;}
	.st32{fill:none;stroke:#2B937C;stroke-width:0.9901;stroke-miterlimit:10;}
	.st33{fill:none;stroke:#2B937C;stroke-width:0.9901;stroke-miterlimit:10;stroke-dasharray:5.9322,5.9322;}
	.st34{fill:#AFBDCE;}
	.st35{fill:#414D59;}
	.st36{fill:#8492A6;}
	.st37{fill:#9AA7B7;}
	.st38{fill:#5E6C7C;}
	.st39{fill:#BDC2C6;}
	.st40{fill:#21A366;}
	.st41{fill:#107C41;}
	.st42{fill:#33C481;}
	.st43{fill:#185C37;}
	.st44{clip-path:url(#SVGID_10_);}
	.st45{clip-path:url(#SVGID_10_);fill:#107C41;}
	.st46{fill:#55606D;}
	.st47{clip-path:url(#SVGID_12_);}
	.st48{fill:#687270;}
	.st49{fill:none;stroke:#FFFFFF;stroke-width:0.3;stroke-miterlimit:10;}
	.st50{fill:#EDF0F4;}
	.st51{fill:none;stroke:#8492A6;stroke-width:0.3;stroke-miterlimit:10;}
	.st52{clip-path:url(#SVGID_14_);}
	.st53{fill:none;stroke:#2B937C;stroke-width:0.9901;stroke-miterlimit:10;stroke-dasharray:5.9389,5.9389;}
	.st54{fill:#F2F5F9;}
	.st55{opacity:0.5;fill:#D7DDE2;}
	.st56{fill:#91A1AA;}
	.st57{opacity:0.65;fill:#BFCAD1;}
	.st58{fill:#BFCAD1;}
	.st59{opacity:0.65;fill:#D7DDE2;}
	.st60{fill:#C1CCD3;}
	.st61{fill:#D8DFE5;}
	.st62{fill:#7A8291;}
	.st63{fill:#76757F;}
	.st64{fill:#0E775E;}
	.st65{opacity:0.75;}
	.st66{fill:#D8E4EA;}
	.st67{fill:#1D876E;}
	.st68{fill:#E9F2FD;}
	.st69{fill:#F5F7F7;}
	.st70{fill:#EAC088;}
	.st71{fill:#E7EBF5;}
	.st72{fill:#9EA3AF;}
	.st73{fill:#10775C;}
	.st74{fill:#26201E;}
	.st75{fill:#5F6372;}
	.st76{fill:#304856;}
	.st77{fill:#405868;}
	.st78{fill:none;stroke:#329680;stroke-miterlimit:10;}
	.st79{fill:none;stroke:#329680;stroke-miterlimit:10;stroke-dasharray:4.3457,4.3457;}
	.st80{fill:none;stroke:#414251;stroke-miterlimit:10;}
	.st81{fill:none;stroke:#414251;stroke-miterlimit:10;stroke-dasharray:4.3457,4.3457;}
	.st82{fill:#E2E7ED;}
	.st83{fill:#C3CCDB;}
	.st84{fill:#F4F7FE;}
	.st85{fill:#D7DDE2;}
	.st86{opacity:0.65;}
</style>
<path class="st1" d="M43,51.3l3.4,0c1-0.1,1.8-1.1,1.8-2.2v-1.8c0-3.2,1.8-5.6,4.6-6c0.2,0,0.5,0,0.7,0c1.3,0,2.6,0.5,3.7,1.5
	c1.5,1.3,2.4,3.2,2.4,5.1c0,0.4,0,0.8-0.1,1.3h5.2c0.6,0,1.1,0.1,1.7,0.3V19.2c0-0.3-0.2-0.5-0.5-0.5H11.7c-0.3,0-0.5,0.2-0.5,0.5
	v33.6c0,0.3,0.2,0.5,0.5,0.5h27.6C40.1,52.1,41.4,51.3,43,51.3z"/>
<path class="st2" d="M48.2,47.3c0-3.2,1.8-5.6,4.6-6c0.2,0,0.5,0,0.7,0c1.3,0,2.6,0.5,3.7,1.5c1.4,1.2,2.2,2.9,2.4,4.6h5.3v-27H12.8
	v27L48.2,47.3L48.2,47.3z"/>
<g>
	<rect x="17.4" y="24.7" class="st0" width="32.7" height="1.7"/>
	<rect x="17.4" y="28.2" class="st0" width="14.9" height="1.7"/>
	<rect x="33.8" y="28.2" class="st0" width="14.9" height="1.7"/>
	<rect x="50.1" y="28.2" class="st0" width="8.6" height="1.7"/>
	<rect x="17.4" y="31.7" class="st0" width="25.3" height="1.7"/>
	<rect x="17.4" y="35.2" class="st0" width="18.3" height="1.7"/>
	<rect x="37.3" y="35.2" class="st0" width="18.3" height="1.7"/>
</g>
<path class="st3" d="M38.7,55.5c0-0.8,0.2-1.6,0.7-2.3h-5.8v6.2h5.1V55.5z"/>
<path class="st1" d="M38.7,59.5H28.3c-0.4,0-0.8,0.3-0.8,0.8v0.1c0,0.4,0.3,0.8,0.8,0.8h10.4V59.5z"/>
<path class="st3" d="M75.4,28.2H61c-0.9,0-1.7,0.7-1.7,1.7v16c0.2,0.6,0.3,1.3,0.3,1.9c0,0.4,0,0.8-0.1,1.3h5.2
	c1.6,0,3.1,0.7,4.1,1.9c1,1.2,1.4,2.8,1.1,4.4L69,61.1h6.5c0.9,0,1.7-0.7,1.7-1.7V29.9C77.1,29,76.4,28.2,75.4,28.2z"/>
<path class="st2" d="M75.4,29.2H61.1c-0.4,0-0.8,0.4-0.8,0.8v19.1h4.4c1.6,0,3.1,0.7,4.1,1.9c1,1.2,1.4,2.8,1.1,4.4l-0.8,4.4h6.2
	c0.4,0,0.8-0.4,0.8-0.8V30C76.1,29.6,75.8,29.2,75.4,29.2z"/>
<g>
	<g>
		<g>
			<defs>
				
					<rect id="SVGID_3_" x="-1014.9" y="-1386.5" transform="matrix(-1 -1.224647e-16 1.224647e-16 -1 -109.7778 -2372.9607)" width="1920" height="400"/>
			</defs>
			<clipPath id="SVGID_2_">
				<use xlink:href="#SVGID_3_"  style="overflow:visible;"/>
			</clipPath>
			<g style="clip-path:url(#SVGID_2_);">
				
					<image style="overflow:visible;" width="3648" height="4560" xlink:href="43899945.jpg"  transform="matrix(0.6165 0 0 0.5287 -1344.049 -2163.2375)">
				</image>
			</g>
		</g>
	</g>
</g>
<path class="st3" d="M69.8,31h-3.2c-0.2,0-0.4-0.2-0.4-0.4v0c0-0.2,0.2-0.4,0.4-0.4h3.2c0.2,0,0.4,0.2,0.4,0.4v0
	C70.3,30.8,70.1,31,69.8,31z"/>
<rect x="77.1" y="35.1" class="st3" width="0.6" height="5"/>
<rect x="77.1" y="42.4" class="st3" width="0.6" height="2.5"/>
<rect x="62.9" y="34" class="st0" width="10.1" height="1.3"/>
<rect x="62.9" y="36.6" class="st0" width="6.8" height="1.3"/>
<rect x="62.9" y="39.2" class="st0" width="11" height="1.3"/>
<rect x="62.9" y="41.8" class="st0" width="2.6" height="1.3"/>
<g>
	<path class="st39" d="M51.2,47.3v1.8c0,2.7-2,4.9-4.6,5.2l0,0l-3.6,0c-0.7,0-1.3,0.6-1.3,1.3v11.7c0,0.7,0.6,1.3,1.3,1.3h19.6
		c1.1,0,2.1-0.8,2.3-1.9l2.2-11.7c0.1-0.7-0.1-1.4-0.5-1.9c-0.4-0.5-1.1-0.9-1.8-0.9h-8.9l0.3-0.9c0.4-1.3,0.5-2.4,0.5-3.3
		c0-1-0.5-2.1-1.4-2.9c-0.6-0.5-1.4-0.8-2-0.7C51.5,44.5,51.2,46.3,51.2,47.3z"/>
</g>
</svg>
